<svg width="835" height="393" viewBox="0 0 835 393" fill="none" xmlns="http://www.w3.org/2000/svg">
<mask id="path-1-inside-1" fill="white">
<rect width="835" height="89" rx="12"/>
</mask>
<rect width="835" height="89" rx="12" stroke="#F4CD6D" stroke-width="80" mask="url(#path-1-inside-1)"/>
<rect x="48" y="44" width="193" height="287" rx="5" fill="#008F68"/>
<rect x="252" y="44" width="136" height="180" rx="5" fill="#008F68"/>
<rect x="399" y="45" width="238" height="348" rx="5" fill="#008F68"/>
<path d="M67.7734 298.484V299.25H70.4609V301.008H67.7734V308H65.4844V301.008H63.3594V299.25H65.4844V298.641C65.4844 297.589 65.7031 296.859 66.1406 296.453C66.5781 296.047 67.3906 295.844 68.5781 295.844H70.4609V297.602H68.6719C68.3281 297.602 68.0938 297.664 67.9688 297.789C67.849 297.914 67.7839 298.146 67.7734 298.484ZM74.6641 304.352V297.602H72.3438V295.844H76.9531V304.352C76.9531 305.039 77.0599 305.526 77.2734 305.812C77.487 306.099 77.849 306.242 78.3594 306.242H80.1875V308H77.7188C76.6302 308 75.849 307.719 75.375 307.156C74.901 306.594 74.6641 305.659 74.6641 304.352ZM86.0938 300.898C85.5469 300.898 85.1172 301.141 84.8047 301.625C84.4922 302.104 84.3359 302.773 84.3359 303.633C84.3359 304.492 84.4922 305.164 84.8047 305.648C85.1172 306.128 85.5469 306.367 86.0938 306.367C86.6458 306.367 87.0781 306.128 87.3906 305.648C87.7031 305.164 87.8594 304.492 87.8594 303.633C87.8594 302.773 87.7031 302.104 87.3906 301.625C87.0781 301.141 86.6458 300.898 86.0938 300.898ZM82.0469 303.633C82.0469 302.221 82.4115 301.104 83.1406 300.281C83.875 299.453 84.8594 299.039 86.0938 299.039C87.3333 299.039 88.3177 299.453 89.0469 300.281C89.7812 301.104 90.1484 302.221 90.1484 303.633C90.1484 305.044 89.7812 306.164 89.0469 306.992C88.3177 307.815 87.3333 308.227 86.0938 308.227C84.8594 308.227 83.875 307.815 83.1406 306.992C82.4115 306.164 82.0469 305.044 82.0469 303.633ZM96.3906 303.891C95.5365 303.891 94.9401 304 94.6016 304.219C94.263 304.438 94.0938 304.812 94.0938 305.344C94.0938 305.74 94.2109 306.055 94.4453 306.289C94.6797 306.523 94.9974 306.641 95.3984 306.641C96.0026 306.641 96.4714 306.414 96.8047 305.961C97.138 305.503 97.3047 304.865 97.3047 304.047V303.891H96.3906ZM99.5781 303.008V308H97.3047V307.023C97.0286 307.409 96.6745 307.706 96.2422 307.914C95.8099 308.122 95.3333 308.227 94.8125 308.227C93.8177 308.227 93.0417 307.964 92.4844 307.438C91.9323 306.911 91.6562 306.177 91.6562 305.234C91.6562 304.214 91.987 303.461 92.6484 302.977C93.3099 302.487 94.3333 302.242 95.7188 302.242H97.3047V301.859C97.3047 301.49 97.1693 301.211 96.8984 301.023C96.6328 300.831 96.2396 300.734 95.7188 300.734C95.1719 300.734 94.6406 300.805 94.125 300.945C93.6146 301.081 93.0807 301.299 92.5234 301.602V299.648C93.0286 299.44 93.5417 299.286 94.0625 299.188C94.5833 299.089 95.1354 299.039 95.7188 299.039C97.1406 299.039 98.138 299.328 98.7109 299.906C99.2891 300.484 99.5781 301.518 99.5781 303.008ZM105.953 296.766V299.25H108.945V301.008H105.953V305.148C105.953 305.539 106.047 305.82 106.234 305.992C106.427 306.159 106.745 306.242 107.188 306.242H108.945V308H107.023C105.711 308 104.823 307.792 104.359 307.375C103.896 306.953 103.664 306.174 103.664 305.039V301.008H101.43V299.25H103.664V296.766H105.953ZM113.711 299.695H116.312V302.547H113.711V299.695ZM113.711 305.133H116.312V308H113.711V305.133ZM132.508 304.352V297.602H130.188V295.844H134.797V304.352C134.797 305.039 134.904 305.526 135.117 305.812C135.331 306.099 135.693 306.242 136.203 306.242H138.031V308H135.562C134.474 308 133.693 307.719 133.219 307.156C132.745 306.594 132.508 305.659 132.508 304.352ZM147.734 307.57C147.203 307.789 146.661 307.953 146.109 308.062C145.557 308.172 144.974 308.227 144.359 308.227C142.896 308.227 141.776 307.836 141 307.055C140.229 306.268 139.844 305.138 139.844 303.664C139.844 302.237 140.216 301.109 140.961 300.281C141.706 299.453 142.721 299.039 144.008 299.039C145.305 299.039 146.31 299.424 147.023 300.195C147.742 300.961 148.102 302.042 148.102 303.438V304.367H142.172C142.177 305.055 142.38 305.568 142.781 305.906C143.182 306.245 143.781 306.414 144.578 306.414C145.104 306.414 145.622 306.339 146.133 306.188C146.643 306.036 147.177 305.797 147.734 305.469V307.57ZM145.797 302.648C145.786 302.044 145.63 301.589 145.328 301.281C145.031 300.969 144.591 300.812 144.008 300.812C143.482 300.812 143.062 300.974 142.75 301.297C142.438 301.615 142.253 302.068 142.195 302.656L145.797 302.648ZM154.539 298.484V299.25H157.227V301.008H154.539V308H152.25V301.008H150.125V299.25H152.25V298.641C152.25 297.589 152.469 296.859 152.906 296.453C153.344 296.047 154.156 295.844 155.344 295.844H157.227V297.602H155.438C155.094 297.602 154.859 297.664 154.734 297.789C154.615 297.914 154.549 298.146 154.539 298.484ZM163.797 296.766V299.25H166.789V301.008H163.797V305.148C163.797 305.539 163.891 305.82 164.078 305.992C164.271 306.159 164.589 306.242 165.031 306.242H166.789V308H164.867C163.555 308 162.667 307.792 162.203 307.375C161.74 306.953 161.508 306.174 161.508 305.039V301.008H159.273V299.25H161.508V296.766H163.797ZM171.555 305.133H174.156V307.25L172.625 310.242H170.945L171.555 307.25V305.133ZM171.555 299.695H174.156V302.547H171.555V299.695Z" fill="#1AE1AA"/>
<path d="M266.773 194.484V195.25H269.461V197.008H266.773V204H264.484V197.008H262.359V195.25H264.484V194.641C264.484 193.589 264.703 192.859 265.141 192.453C265.578 192.047 266.391 191.844 267.578 191.844H269.461V193.602H267.672C267.328 193.602 267.094 193.664 266.969 193.789C266.849 193.914 266.784 194.146 266.773 194.484ZM273.664 200.352V193.602H271.344V191.844H275.953V200.352C275.953 201.039 276.06 201.526 276.273 201.812C276.487 202.099 276.849 202.242 277.359 202.242H279.188V204H276.719C275.63 204 274.849 203.719 274.375 203.156C273.901 202.594 273.664 201.659 273.664 200.352ZM285.094 196.898C284.547 196.898 284.117 197.141 283.805 197.625C283.492 198.104 283.336 198.773 283.336 199.633C283.336 200.492 283.492 201.164 283.805 201.648C284.117 202.128 284.547 202.367 285.094 202.367C285.646 202.367 286.078 202.128 286.391 201.648C286.703 201.164 286.859 200.492 286.859 199.633C286.859 198.773 286.703 198.104 286.391 197.625C286.078 197.141 285.646 196.898 285.094 196.898ZM281.047 199.633C281.047 198.221 281.411 197.104 282.141 196.281C282.875 195.453 283.859 195.039 285.094 195.039C286.333 195.039 287.318 195.453 288.047 196.281C288.781 197.104 289.148 198.221 289.148 199.633C289.148 201.044 288.781 202.164 288.047 202.992C287.318 203.815 286.333 204.227 285.094 204.227C283.859 204.227 282.875 203.815 282.141 202.992C281.411 202.164 281.047 201.044 281.047 199.633ZM295.391 199.891C294.536 199.891 293.94 200 293.602 200.219C293.263 200.438 293.094 200.812 293.094 201.344C293.094 201.74 293.211 202.055 293.445 202.289C293.68 202.523 293.997 202.641 294.398 202.641C295.003 202.641 295.471 202.414 295.805 201.961C296.138 201.503 296.305 200.865 296.305 200.047V199.891H295.391ZM298.578 199.008V204H296.305V203.023C296.029 203.409 295.674 203.706 295.242 203.914C294.81 204.122 294.333 204.227 293.812 204.227C292.818 204.227 292.042 203.964 291.484 203.438C290.932 202.911 290.656 202.177 290.656 201.234C290.656 200.214 290.987 199.461 291.648 198.977C292.31 198.487 293.333 198.242 294.719 198.242H296.305V197.859C296.305 197.49 296.169 197.211 295.898 197.023C295.633 196.831 295.24 196.734 294.719 196.734C294.172 196.734 293.641 196.805 293.125 196.945C292.615 197.081 292.081 197.299 291.523 197.602V195.648C292.029 195.44 292.542 195.286 293.062 195.188C293.583 195.089 294.135 195.039 294.719 195.039C296.141 195.039 297.138 195.328 297.711 195.906C298.289 196.484 298.578 197.518 298.578 199.008ZM304.953 192.766V195.25H307.945V197.008H304.953V201.148C304.953 201.539 305.047 201.82 305.234 201.992C305.427 202.159 305.745 202.242 306.188 202.242H307.945V204H306.023C304.711 204 303.823 203.792 303.359 203.375C302.896 202.953 302.664 202.174 302.664 201.039V197.008H300.43V195.25H302.664V192.766H304.953ZM312.711 195.695H315.312V198.547H312.711V195.695ZM312.711 201.133H315.312V204H312.711V201.133ZM331.508 200.352V193.602H329.188V191.844H333.797V200.352C333.797 201.039 333.904 201.526 334.117 201.812C334.331 202.099 334.693 202.242 335.203 202.242H337.031V204H334.562C333.474 204 332.693 203.719 332.219 203.156C331.745 202.594 331.508 201.659 331.508 200.352ZM346.734 203.57C346.203 203.789 345.661 203.953 345.109 204.062C344.557 204.172 343.974 204.227 343.359 204.227C341.896 204.227 340.776 203.836 340 203.055C339.229 202.268 338.844 201.138 338.844 199.664C338.844 198.237 339.216 197.109 339.961 196.281C340.706 195.453 341.721 195.039 343.008 195.039C344.305 195.039 345.31 195.424 346.023 196.195C346.742 196.961 347.102 198.042 347.102 199.438V200.367H341.172C341.177 201.055 341.38 201.568 341.781 201.906C342.182 202.245 342.781 202.414 343.578 202.414C344.104 202.414 344.622 202.339 345.133 202.188C345.643 202.036 346.177 201.797 346.734 201.469V203.57ZM344.797 198.648C344.786 198.044 344.63 197.589 344.328 197.281C344.031 196.969 343.591 196.812 343.008 196.812C342.482 196.812 342.062 196.974 341.75 197.297C341.438 197.615 341.253 198.068 341.195 198.656L344.797 198.648ZM353.539 194.484V195.25H356.227V197.008H353.539V204H351.25V197.008H349.125V195.25H351.25V194.641C351.25 193.589 351.469 192.859 351.906 192.453C352.344 192.047 353.156 191.844 354.344 191.844H356.227V193.602H354.438C354.094 193.602 353.859 193.664 353.734 193.789C353.615 193.914 353.549 194.146 353.539 194.484ZM362.797 192.766V195.25H365.789V197.008H362.797V201.148C362.797 201.539 362.891 201.82 363.078 201.992C363.271 202.159 363.589 202.242 364.031 202.242H365.789V204H363.867C362.555 204 361.667 203.792 361.203 203.375C360.74 202.953 360.508 202.174 360.508 201.039V197.008H358.273V195.25H360.508V192.766H362.797ZM370.555 201.133H373.156V203.25L371.625 206.242H369.945L370.555 203.25V201.133ZM370.555 195.695H373.156V198.547H370.555V195.695Z" fill="#1AE1AA"/>
<path d="M414.773 363.484V364.25H417.461V366.008H414.773V373H412.484V366.008H410.359V364.25H412.484V363.641C412.484 362.589 412.703 361.859 413.141 361.453C413.578 361.047 414.391 360.844 415.578 360.844H417.461V362.602H415.672C415.328 362.602 415.094 362.664 414.969 362.789C414.849 362.914 414.784 363.146 414.773 363.484ZM421.664 369.352V362.602H419.344V360.844H423.953V369.352C423.953 370.039 424.06 370.526 424.273 370.812C424.487 371.099 424.849 371.242 425.359 371.242H427.188V373H424.719C423.63 373 422.849 372.719 422.375 372.156C421.901 371.594 421.664 370.659 421.664 369.352ZM433.094 365.898C432.547 365.898 432.117 366.141 431.805 366.625C431.492 367.104 431.336 367.773 431.336 368.633C431.336 369.492 431.492 370.164 431.805 370.648C432.117 371.128 432.547 371.367 433.094 371.367C433.646 371.367 434.078 371.128 434.391 370.648C434.703 370.164 434.859 369.492 434.859 368.633C434.859 367.773 434.703 367.104 434.391 366.625C434.078 366.141 433.646 365.898 433.094 365.898ZM429.047 368.633C429.047 367.221 429.411 366.104 430.141 365.281C430.875 364.453 431.859 364.039 433.094 364.039C434.333 364.039 435.318 364.453 436.047 365.281C436.781 366.104 437.148 367.221 437.148 368.633C437.148 370.044 436.781 371.164 436.047 371.992C435.318 372.815 434.333 373.227 433.094 373.227C431.859 373.227 430.875 372.815 430.141 371.992C429.411 371.164 429.047 370.044 429.047 368.633ZM443.391 368.891C442.536 368.891 441.94 369 441.602 369.219C441.263 369.438 441.094 369.812 441.094 370.344C441.094 370.74 441.211 371.055 441.445 371.289C441.68 371.523 441.997 371.641 442.398 371.641C443.003 371.641 443.471 371.414 443.805 370.961C444.138 370.503 444.305 369.865 444.305 369.047V368.891H443.391ZM446.578 368.008V373H444.305V372.023C444.029 372.409 443.674 372.706 443.242 372.914C442.81 373.122 442.333 373.227 441.812 373.227C440.818 373.227 440.042 372.964 439.484 372.438C438.932 371.911 438.656 371.177 438.656 370.234C438.656 369.214 438.987 368.461 439.648 367.977C440.31 367.487 441.333 367.242 442.719 367.242H444.305V366.859C444.305 366.49 444.169 366.211 443.898 366.023C443.633 365.831 443.24 365.734 442.719 365.734C442.172 365.734 441.641 365.805 441.125 365.945C440.615 366.081 440.081 366.299 439.523 366.602V364.648C440.029 364.44 440.542 364.286 441.062 364.188C441.583 364.089 442.135 364.039 442.719 364.039C444.141 364.039 445.138 364.328 445.711 364.906C446.289 365.484 446.578 366.518 446.578 368.008ZM452.953 361.766V364.25H455.945V366.008H452.953V370.148C452.953 370.539 453.047 370.82 453.234 370.992C453.427 371.159 453.745 371.242 454.188 371.242H455.945V373H454.023C452.711 373 451.823 372.792 451.359 372.375C450.896 371.953 450.664 371.174 450.664 370.039V366.008H448.43V364.25H450.664V361.766H452.953ZM460.711 364.695H463.312V367.547H460.711V364.695ZM460.711 370.133H463.312V373H460.711V370.133ZM479.508 369.352V362.602H477.188V360.844H481.797V369.352C481.797 370.039 481.904 370.526 482.117 370.812C482.331 371.099 482.693 371.242 483.203 371.242H485.031V373H482.562C481.474 373 480.693 372.719 480.219 372.156C479.745 371.594 479.508 370.659 479.508 369.352ZM494.734 372.57C494.203 372.789 493.661 372.953 493.109 373.062C492.557 373.172 491.974 373.227 491.359 373.227C489.896 373.227 488.776 372.836 488 372.055C487.229 371.268 486.844 370.138 486.844 368.664C486.844 367.237 487.216 366.109 487.961 365.281C488.706 364.453 489.721 364.039 491.008 364.039C492.305 364.039 493.31 364.424 494.023 365.195C494.742 365.961 495.102 367.042 495.102 368.438V369.367H489.172C489.177 370.055 489.38 370.568 489.781 370.906C490.182 371.245 490.781 371.414 491.578 371.414C492.104 371.414 492.622 371.339 493.133 371.188C493.643 371.036 494.177 370.797 494.734 370.469V372.57ZM492.797 367.648C492.786 367.044 492.63 366.589 492.328 366.281C492.031 365.969 491.591 365.812 491.008 365.812C490.482 365.812 490.062 365.974 489.75 366.297C489.438 366.615 489.253 367.068 489.195 367.656L492.797 367.648ZM501.539 363.484V364.25H504.227V366.008H501.539V373H499.25V366.008H497.125V364.25H499.25V363.641C499.25 362.589 499.469 361.859 499.906 361.453C500.344 361.047 501.156 360.844 502.344 360.844H504.227V362.602H502.438C502.094 362.602 501.859 362.664 501.734 362.789C501.615 362.914 501.549 363.146 501.539 363.484ZM510.797 361.766V364.25H513.789V366.008H510.797V370.148C510.797 370.539 510.891 370.82 511.078 370.992C511.271 371.159 511.589 371.242 512.031 371.242H513.789V373H511.867C510.555 373 509.667 372.792 509.203 372.375C508.74 371.953 508.508 371.174 508.508 370.039V366.008H506.273V364.25H508.508V361.766H510.797ZM518.555 370.133H521.156V372.25L519.625 375.242H517.945L518.555 372.25V370.133ZM518.555 364.695H521.156V367.547H518.555V364.695Z" fill="#1AE1AA"/>
<path d="M701.453 73.7656V78.3281H699.172V66.25H701.453V67.5625C701.693 67.0573 702.008 66.6771 702.398 66.4219C702.789 66.1667 703.247 66.0391 703.773 66.0391C704.773 66.0391 705.549 66.4401 706.102 67.2422C706.654 68.0443 706.93 69.1745 706.93 70.6328C706.93 72.112 706.648 73.2474 706.086 74.0391C705.529 74.8307 704.732 75.2266 703.695 75.2266C703.227 75.2266 702.805 75.1068 702.43 74.8672C702.06 74.6224 701.734 74.2552 701.453 73.7656ZM704.641 70.6172C704.641 69.7734 704.5 69.112 704.219 68.6328C703.938 68.1536 703.549 67.9141 703.055 67.9141C702.56 67.9141 702.169 68.1536 701.883 68.6328C701.596 69.112 701.453 69.7734 701.453 70.6172C701.453 71.4609 701.596 72.1224 701.883 72.6016C702.169 73.0807 702.56 73.3203 703.055 73.3203C703.549 73.3203 703.938 73.0807 704.219 72.6016C704.5 72.1224 704.641 71.4609 704.641 70.6172ZM713.109 70.8906C712.255 70.8906 711.659 71 711.32 71.2188C710.982 71.4375 710.812 71.8125 710.812 72.3438C710.812 72.7396 710.93 73.0547 711.164 73.2891C711.398 73.5234 711.716 73.6406 712.117 73.6406C712.721 73.6406 713.19 73.4141 713.523 72.9609C713.857 72.5026 714.023 71.8646 714.023 71.0469V70.8906H713.109ZM716.297 70.0078V75H714.023V74.0234C713.747 74.4089 713.393 74.7057 712.961 74.9141C712.529 75.1224 712.052 75.2266 711.531 75.2266C710.536 75.2266 709.76 74.9635 709.203 74.4375C708.651 73.9115 708.375 73.1771 708.375 72.2344C708.375 71.2135 708.706 70.4609 709.367 69.9766C710.029 69.487 711.052 69.2422 712.438 69.2422H714.023V68.8594C714.023 68.4896 713.888 68.2109 713.617 68.0234C713.352 67.8307 712.958 67.7344 712.438 67.7344C711.891 67.7344 711.359 67.8047 710.844 67.9453C710.333 68.0807 709.799 68.2995 709.242 68.6016V66.6484C709.747 66.4401 710.26 66.2865 710.781 66.1875C711.302 66.0885 711.854 66.0391 712.438 66.0391C713.859 66.0391 714.857 66.3281 715.43 66.9062C716.008 67.4844 716.297 68.5182 716.297 70.0078ZM723.461 67.4922V62.8438H725.742V75H723.461V73.7031C723.216 74.2083 722.898 74.5885 722.508 74.8438C722.122 75.099 721.667 75.2266 721.141 75.2266C720.141 75.2266 719.365 74.8255 718.812 74.0234C718.26 73.2214 717.984 72.0911 717.984 70.6328C717.984 69.1536 718.263 68.0182 718.82 67.2266C719.383 66.4349 720.182 66.0391 721.219 66.0391C721.688 66.0391 722.107 66.1615 722.477 66.4062C722.852 66.6458 723.18 67.0078 723.461 67.4922ZM720.273 70.6484C720.273 71.4922 720.414 72.1536 720.695 72.6328C720.977 73.112 721.365 73.3516 721.859 73.3516C722.354 73.3516 722.745 73.112 723.031 72.6328C723.318 72.1536 723.461 71.4922 723.461 70.6484C723.461 69.8047 723.318 69.1432 723.031 68.6641C722.745 68.1849 722.354 67.9453 721.859 67.9453C721.365 67.9453 720.977 68.1849 720.695 68.6641C720.414 69.1432 720.273 69.8047 720.273 70.6484ZM733.102 67.4922V62.8438H735.383V75H733.102V73.7031C732.857 74.2083 732.539 74.5885 732.148 74.8438C731.763 75.099 731.307 75.2266 730.781 75.2266C729.781 75.2266 729.005 74.8255 728.453 74.0234C727.901 73.2214 727.625 72.0911 727.625 70.6328C727.625 69.1536 727.904 68.0182 728.461 67.2266C729.023 66.4349 729.823 66.0391 730.859 66.0391C731.328 66.0391 731.747 66.1615 732.117 66.4062C732.492 66.6458 732.82 67.0078 733.102 67.4922ZM729.914 70.6484C729.914 71.4922 730.055 72.1536 730.336 72.6328C730.617 73.112 731.005 73.3516 731.5 73.3516C731.995 73.3516 732.385 73.112 732.672 72.6328C732.958 72.1536 733.102 71.4922 733.102 70.6484C733.102 69.8047 732.958 69.1432 732.672 68.6641C732.385 68.1849 731.995 67.9453 731.5 67.9453C731.005 67.9453 730.617 68.1849 730.336 68.6641C730.055 69.1432 729.914 69.8047 729.914 70.6484ZM738.289 66.25H742.82V73.2422H745.664V75H737.68V73.2422H740.531V68.0078H738.289V66.25ZM740.531 61.9922H742.82V64.6641H740.531V61.9922ZM754.57 69.3203V75H752.297V69.6719C752.297 69.0365 752.206 68.5833 752.023 68.3125C751.846 68.0365 751.555 67.8984 751.148 67.8984C750.737 67.8984 750.411 68.0833 750.172 68.4531C749.938 68.8229 749.82 69.3359 749.82 69.9922V75H747.547V66.25H749.82V67.5625C749.982 67.0781 750.258 66.7031 750.648 66.4375C751.039 66.1719 751.51 66.0391 752.062 66.0391C752.891 66.0391 753.516 66.3151 753.938 66.8672C754.359 67.4141 754.57 68.2318 754.57 69.3203ZM762.117 70.4844C762.117 69.7031 761.969 69.0781 761.672 68.6094C761.375 68.1354 760.984 67.8984 760.5 67.8984C760.021 67.8984 759.633 68.1328 759.336 68.6016C759.044 69.0703 758.898 69.6979 758.898 70.4844C758.898 71.276 759.044 71.9062 759.336 72.375C759.633 72.8438 760.021 73.0781 760.5 73.0781C760.984 73.0781 761.375 72.8438 761.672 72.375C761.969 71.901 762.117 71.2708 762.117 70.4844ZM764.406 74.3438C764.406 75.7448 764.089 76.7552 763.453 77.375C762.823 78 761.797 78.3125 760.375 78.3125C759.896 78.3125 759.422 78.276 758.953 78.2031C758.484 78.1354 758.008 78.0286 757.523 77.8828V75.7812C757.956 76.0208 758.396 76.1979 758.844 76.3125C759.292 76.4271 759.753 76.4844 760.227 76.4844C760.872 76.4844 761.349 76.3307 761.656 76.0234C761.964 75.7214 762.117 75.2474 762.117 74.6016V73.6562C761.893 74.0729 761.596 74.3828 761.227 74.5859C760.857 74.7891 760.406 74.8906 759.875 74.8906C758.875 74.8906 758.081 74.5 757.492 73.7188C756.904 72.9375 756.609 71.8776 756.609 70.5391C756.609 69.1536 756.904 68.0547 757.492 67.2422C758.081 66.4297 758.87 66.0234 759.859 66.0234C760.359 66.0234 760.805 66.1406 761.195 66.375C761.586 66.6094 761.893 66.9401 762.117 67.3672V66.25H764.406V74.3438ZM768.992 66.6953H771.594V69.5469H768.992V66.6953ZM768.992 72.1328H771.594V75H768.992V72.1328ZM786.234 72.9688H788.812V65.3984L786.414 65.9922V63.9141L788.828 63.3359H791.055V72.9688H793.633V75H786.234V72.9688ZM799.43 69.1562C798.93 69.1562 798.547 69.3385 798.281 69.7031C798.021 70.0625 797.891 70.5859 797.891 71.2734C797.891 71.9557 798.021 72.4792 798.281 72.8438C798.547 73.2031 798.93 73.3828 799.43 73.3828C799.93 73.3828 800.312 73.2031 800.578 72.8438C800.849 72.4792 800.984 71.9557 800.984 71.2734C800.984 70.5911 800.849 70.0677 800.578 69.7031C800.312 69.3385 799.93 69.1562 799.43 69.1562ZM802.453 63.6094V65.7031C802.042 65.4688 801.646 65.2943 801.266 65.1797C800.891 65.0599 800.529 65 800.18 65C799.346 65 798.711 65.2812 798.273 65.8438C797.841 66.401 797.615 67.2266 797.594 68.3203C797.839 67.9818 798.151 67.7292 798.531 67.5625C798.911 67.3906 799.359 67.3047 799.875 67.3047C800.927 67.3047 801.74 67.638 802.312 68.3047C802.885 68.9661 803.172 69.9062 803.172 71.125C803.172 72.4323 802.849 73.4453 802.203 74.1641C801.562 74.8828 800.659 75.2422 799.492 75.2422C798.07 75.2422 797.036 74.7656 796.391 73.8125C795.75 72.8594 795.43 71.3203 795.43 69.1953C795.43 67.1745 795.823 65.6615 796.609 64.6562C797.396 63.6458 798.576 63.1406 800.148 63.1406C800.513 63.1406 800.888 63.1797 801.273 63.2578C801.664 63.3359 802.057 63.4531 802.453 63.6094ZM807.5 73.7656V78.3281H805.219V66.25H807.5V67.5625C807.74 67.0573 808.055 66.6771 808.445 66.4219C808.836 66.1667 809.294 66.0391 809.82 66.0391C810.82 66.0391 811.596 66.4401 812.148 67.2422C812.701 68.0443 812.977 69.1745 812.977 70.6328C812.977 72.112 812.695 73.2474 812.133 74.0391C811.576 74.8307 810.779 75.2266 809.742 75.2266C809.273 75.2266 808.852 75.1068 808.477 74.8672C808.107 74.6224 807.781 74.2552 807.5 73.7656ZM810.688 70.6172C810.688 69.7734 810.547 69.112 810.266 68.6328C809.984 68.1536 809.596 67.9141 809.102 67.9141C808.607 67.9141 808.216 68.1536 807.93 68.6328C807.643 69.112 807.5 69.7734 807.5 70.6172C807.5 71.4609 807.643 72.1224 807.93 72.6016C808.216 73.0807 808.607 73.3203 809.102 73.3203C809.596 73.3203 809.984 73.0807 810.266 72.6016C810.547 72.1224 810.688 71.4609 810.688 70.6172ZM822.633 66.25L819.688 70.4375L822.891 75H820.219L818.5 72.0547L816.789 75H814.117L817.352 70.4375L814.375 66.25H817.047L818.5 68.8594L819.961 66.25H822.633Z" fill="#FFF3D5"/>
</svg>
